<svg xmlns="http://www.w3.org/2000/svg" viewBox="0 0 64 64">
  <style>
    .frame { fill: #15150f; }
    .cube { fill: #2b4fd8; }
    @media (prefers-color-scheme: dark) {
      .frame { fill: #f2f1eb; }
      .cube { fill: #8b9eff; }
    }
  </style>
  <mask id="frame-gaps">
    <rect width="64" height="64" fill="#fff"/>
    <g stroke="#000" stroke-width="1">
      <path d="M32 2L32 13.5"/>
      <path d="M58 17L48 22.8"/>
      <path d="M58 47L48 41.3"/>
      <path d="M32 62L32 50.5"/>
      <path d="M6 47L16 41.3"/>
      <path d="M6 17L16 22.8"/>
    </g>
  </mask>
  <mask id="cube-gaps">
    <rect width="64" height="64" fill="#fff"/>
    <g stroke="#000" stroke-width="1">
      <path d="M32 32L21.6 26"/>
      <path d="M32 32L42.4 26"/>
      <path d="M32 32L32 44"/>
    </g>
  </mask>
  <!-- the frame: one flat tone, faces separated by hairline gaps -->
  <path class="frame" mask="url(#frame-gaps)" fill-rule="evenodd"
        d="M32 2L58 17L58 47L32 62L6 47L6 17L32 2Z M32 13.5L48 22.8L48 41.3L32 50.5L16 41.3L16 22.8L32 13.5Z"/>
  <!-- the mind: one flat blue, centered in the frame -->
  <path class="cube" mask="url(#cube-gaps)"
        d="M32 20L42.4 26L42.4 38L32 44L21.6 38L21.6 26L32 20Z"/>
</svg>
