<svg xmlns="http://www.w3.org/2000/svg" viewBox="0 0 64 64">
  <rect width="64" height="64" rx="14" fill="#000000"/>
  <!-- the frame: six flat faces, light falling from the top -->
  <path d="M32 7L9.5 20L18.1 25L32 17Z" fill="#f2f1eb"/>
  <path d="M32 7L54.5 20L45.9 25L32 17Z" fill="#f2f1eb" fill-opacity="0.86"/>
  <path d="M9.5 20L9.5 46L18.1 41L18.1 25Z" fill="#f2f1eb" fill-opacity="0.7"/>
  <path d="M54.5 20L54.5 46L45.9 41L45.9 25Z" fill="#f2f1eb" fill-opacity="0.58"/>
  <path d="M9.5 46L32 59L32 49L18.1 41Z" fill="#f2f1eb" fill-opacity="0.44"/>
  <path d="M54.5 46L32 59L32 49L45.9 41Z" fill="#f2f1eb" fill-opacity="0.36"/>
  <!-- the mind, floating in the frame -->
  <path d="M32 19.5L41.1 24.8L32 30L22.9 24.8Z" fill="#8b9eff"/>
  <path d="M22.9 24.8L32 30L32 40.5L22.9 35.3Z" fill="#8b9eff" fill-opacity="0.72"/>
  <path d="M41.1 24.8L41.1 35.3L32 40.5L32 30Z" fill="#8b9eff" fill-opacity="0.5"/>
</svg>
