<svg xmlns="http://www.w3.org/2000/svg" viewBox="0 0 64 64">
  <style>
    .frame { fill: #15150f; }
    .cube { fill: #2b4fd8; }
    @media (prefers-color-scheme: dark) {
      .frame { fill: #f2f1eb; }
      .cube { fill: #8b9eff; }
    }
  </style>
  <mask id="frame-gaps">
    <rect width="64" height="64" fill="#fff"/>
    <g stroke="#000" stroke-width="1">
      <path d="M32 6L32 16"/>
      <path d="M54.5 19L45.9 24"/>
      <path d="M54.5 45L45.9 40"/>
      <path d="M32 58L32 48"/>
      <path d="M9.5 45L18.1 40"/>
      <path d="M9.5 19L18.1 24"/>
    </g>
  </mask>
  <mask id="cube-gaps">
    <rect width="64" height="64" fill="#fff"/>
    <g stroke="#000" stroke-width="1">
      <path d="M32 32L22.9 26.8"/>
      <path d="M32 32L41.1 26.8"/>
      <path d="M32 32L32 42.5"/>
    </g>
  </mask>
  <!-- the frame: one flat tone, faces separated by hairline gaps -->
  <path class="frame" mask="url(#frame-gaps)" fill-rule="evenodd"
        d="M32 6L54.5 19L54.5 45L32 58L9.5 45L9.5 19L32 6Z M32 16L45.9 24L45.9 40L32 48L18.1 40L18.1 24L32 16Z"/>
  <!-- the mind: one flat blue, centered in the frame -->
  <path class="cube" mask="url(#cube-gaps)"
        d="M32 21.5L41.1 26.8L41.1 37.3L32 42.5L22.9 37.3L22.9 26.8L32 21.5Z"/>
</svg>
